<?xml version="1.0" standalone="no"?>
<svg xmlns:xlink="http://www.w3.org/1999/xlink" id="wave" style="transform:rotate(180deg); transition: 0.3s" viewBox="0 0 1440 460" version="1.1" xmlns="http://www.w3.org/2000/svg"><defs><linearGradient id="sw-gradient-0" x1="0" x2="0" y1="1" y2="0"><stop stop-color="rgba(24.285, 122.72, 195.021, 1)" offset="0%"/><stop stop-color="rgba(16.389, 107.219, 222.342, 1)" offset="100%"/></linearGradient></defs><path style="transform:translate(0, 0px); opacity:1" fill="url(#sw-gradient-0)" d="M0,92L20,130.3C40,169,80,245,120,237.7C160,230,200,138,240,145.7C280,153,320,261,360,299C400,337,440,307,480,253C520,199,560,123,600,130.3C640,138,680,230,720,230C760,230,800,138,840,107.3C880,77,920,107,960,168.7C1000,230,1040,322,1080,314.3C1120,307,1160,199,1200,161C1240,123,1280,153,1320,153.3C1360,153,1400,123,1440,122.7C1480,123,1520,153,1560,145.7C1600,138,1640,92,1680,122.7C1720,153,1760,261,1800,306.7C1840,353,1880,337,1920,314.3C1960,291,2000,261,2040,276C2080,291,2120,353,2160,337.3C2200,322,2240,230,2280,176.3C2320,123,2360,107,2400,99.7C2440,92,2480,92,2520,145.7C2560,199,2600,307,2640,314.3C2680,322,2720,230,2760,168.7C2800,107,2840,77,2860,61.3L2880,46L2880,460L2860,460C2840,460,2800,460,2760,460C2720,460,2680,460,2640,460C2600,460,2560,460,2520,460C2480,460,2440,460,2400,460C2360,460,2320,460,2280,460C2240,460,2200,460,2160,460C2120,460,2080,460,2040,460C2000,460,1960,460,1920,460C1880,460,1840,460,1800,460C1760,460,1720,460,1680,460C1640,460,1600,460,1560,460C1520,460,1480,460,1440,460C1400,460,1360,460,1320,460C1280,460,1240,460,1200,460C1160,460,1120,460,1080,460C1040,460,1000,460,960,460C920,460,880,460,840,460C800,460,760,460,720,460C680,460,640,460,600,460C560,460,520,460,480,460C440,460,400,460,360,460C320,460,280,460,240,460C200,460,160,460,120,460C80,460,40,460,20,460L0,460Z"/></svg>